<mxfile host="app.diagrams.net" modified="2021-09-21T01:33:46.601Z" agent="5.0 (Windows)" etag="muBWcX3n2KVYxEtMAVVx" version="15.1.4" type="github">
  <diagram id="C5RBs43oDa-KdzZeNtuy" name="Page-1">
    <mxGraphModel dx="1371" dy="549" grid="1" gridSize="10" guides="1" tooltips="1" connect="1" arrows="1" fold="1" page="1" pageScale="1" pageWidth="827" pageHeight="1169" math="0" shadow="0">
      <root>
        <mxCell id="WIyWlLk6GJQsqaUBKTNV-0" />
        <mxCell id="WIyWlLk6GJQsqaUBKTNV-1" parent="WIyWlLk6GJQsqaUBKTNV-0" />
        <mxCell id="b6L-lH3KIi2RuOBNaned-25" value="" style="edgeStyle=orthogonalEdgeStyle;rounded=0;orthogonalLoop=1;jettySize=auto;html=1;" edge="1" parent="WIyWlLk6GJQsqaUBKTNV-1" source="b6L-lH3KIi2RuOBNaned-0" target="b6L-lH3KIi2RuOBNaned-5">
          <mxGeometry relative="1" as="geometry" />
        </mxCell>
        <mxCell id="b6L-lH3KIi2RuOBNaned-0" value="Admin Adds User in Panel" style="rounded=1;whiteSpace=wrap;html=1;" vertex="1" parent="WIyWlLk6GJQsqaUBKTNV-1">
          <mxGeometry x="40" y="90" width="120" height="60" as="geometry" />
        </mxCell>
        <mxCell id="b6L-lH3KIi2RuOBNaned-2" value="User Registration" style="rounded=0;whiteSpace=wrap;html=1;" vertex="1" parent="WIyWlLk6GJQsqaUBKTNV-1">
          <mxGeometry x="320" width="120" height="60" as="geometry" />
        </mxCell>
        <mxCell id="b6L-lH3KIi2RuOBNaned-24" value="" style="edgeStyle=orthogonalEdgeStyle;rounded=0;orthogonalLoop=1;jettySize=auto;html=1;" edge="1" parent="WIyWlLk6GJQsqaUBKTNV-1" source="b6L-lH3KIi2RuOBNaned-5" target="b6L-lH3KIi2RuOBNaned-6">
          <mxGeometry relative="1" as="geometry" />
        </mxCell>
        <mxCell id="b6L-lH3KIi2RuOBNaned-5" value="&lt;div&gt;Data:&lt;/div&gt;&lt;div&gt;Firstname&lt;/div&gt;&lt;div&gt;LastName&lt;/div&gt;&lt;div&gt;EmailAddress&lt;/div&gt;&lt;div&gt;Billing Code&lt;br&gt;&lt;/div&gt;" style="rounded=0;whiteSpace=wrap;html=1;" vertex="1" parent="WIyWlLk6GJQsqaUBKTNV-1">
          <mxGeometry x="200" y="75" width="120" height="90" as="geometry" />
        </mxCell>
        <mxCell id="b6L-lH3KIi2RuOBNaned-29" style="edgeStyle=orthogonalEdgeStyle;rounded=0;orthogonalLoop=1;jettySize=auto;html=1;" edge="1" parent="WIyWlLk6GJQsqaUBKTNV-1" source="b6L-lH3KIi2RuOBNaned-6" target="b6L-lH3KIi2RuOBNaned-10">
          <mxGeometry relative="1" as="geometry" />
        </mxCell>
        <mxCell id="b6L-lH3KIi2RuOBNaned-6" value="&lt;div&gt;createUser()&lt;/div&gt;&lt;div&gt;&lt;br&gt;&lt;/div&gt;" style="rounded=1;whiteSpace=wrap;html=1;" vertex="1" parent="WIyWlLk6GJQsqaUBKTNV-1">
          <mxGeometry x="360" y="90" width="120" height="60" as="geometry" />
        </mxCell>
        <mxCell id="b6L-lH3KIi2RuOBNaned-30" style="edgeStyle=orthogonalEdgeStyle;rounded=0;orthogonalLoop=1;jettySize=auto;html=1;" edge="1" parent="WIyWlLk6GJQsqaUBKTNV-1" source="b6L-lH3KIi2RuOBNaned-10" target="b6L-lH3KIi2RuOBNaned-14">
          <mxGeometry relative="1" as="geometry" />
        </mxCell>
        <mxCell id="b6L-lH3KIi2RuOBNaned-10" value="&lt;div&gt;Generates new unique API key and adds to newly&lt;br&gt;&lt;/div&gt;&lt;div&gt;Created row in users with data in DB&lt;/div&gt;" style="rounded=1;whiteSpace=wrap;html=1;" vertex="1" parent="WIyWlLk6GJQsqaUBKTNV-1">
          <mxGeometry x="520" y="70" width="120" height="100" as="geometry" />
        </mxCell>
        <mxCell id="b6L-lH3KIi2RuOBNaned-19" value="" style="edgeStyle=orthogonalEdgeStyle;rounded=0;orthogonalLoop=1;jettySize=auto;html=1;" edge="1" parent="WIyWlLk6GJQsqaUBKTNV-1" source="b6L-lH3KIi2RuOBNaned-14" target="b6L-lH3KIi2RuOBNaned-18">
          <mxGeometry relative="1" as="geometry" />
        </mxCell>
        <mxCell id="b6L-lH3KIi2RuOBNaned-14" value="Send Verification Email using firebase with provided email" style="rounded=1;whiteSpace=wrap;html=1;" vertex="1" parent="WIyWlLk6GJQsqaUBKTNV-1">
          <mxGeometry x="680" y="90" width="120" height="60" as="geometry" />
        </mxCell>
        <mxCell id="b6L-lH3KIi2RuOBNaned-21" value="" style="edgeStyle=orthogonalEdgeStyle;rounded=0;orthogonalLoop=1;jettySize=auto;html=1;" edge="1" parent="WIyWlLk6GJQsqaUBKTNV-1" source="b6L-lH3KIi2RuOBNaned-18" target="b6L-lH3KIi2RuOBNaned-20">
          <mxGeometry relative="1" as="geometry" />
        </mxCell>
        <mxCell id="b6L-lH3KIi2RuOBNaned-18" value="User cannot login until email clicked. Upon click verified is set to 1 in firebase" style="rounded=1;whiteSpace=wrap;html=1;" vertex="1" parent="WIyWlLk6GJQsqaUBKTNV-1">
          <mxGeometry x="680" y="200" width="120" height="60" as="geometry" />
        </mxCell>
        <mxCell id="b6L-lH3KIi2RuOBNaned-23" value="" style="edgeStyle=orthogonalEdgeStyle;rounded=0;orthogonalLoop=1;jettySize=auto;html=1;" edge="1" parent="WIyWlLk6GJQsqaUBKTNV-1" source="b6L-lH3KIi2RuOBNaned-20" target="b6L-lH3KIi2RuOBNaned-22">
          <mxGeometry relative="1" as="geometry" />
        </mxCell>
        <mxCell id="b6L-lH3KIi2RuOBNaned-20" value="After clicking user is sent to password creation screen" style="rounded=1;whiteSpace=wrap;html=1;" vertex="1" parent="WIyWlLk6GJQsqaUBKTNV-1">
          <mxGeometry x="500" y="200" width="120" height="60" as="geometry" />
        </mxCell>
        <mxCell id="b6L-lH3KIi2RuOBNaned-22" value="Upon password completion and validation user sent to Clients Dashboard view" style="rounded=1;whiteSpace=wrap;html=1;" vertex="1" parent="WIyWlLk6GJQsqaUBKTNV-1">
          <mxGeometry x="360" y="190" width="120" height="80" as="geometry" />
        </mxCell>
      </root>
    </mxGraphModel>
  </diagram>
</mxfile>
